{"title":"The Wolverine cam rip (2013)","uid":8784017,"size":1912928256,"categoryP":"video","categoryS":"movies","magnet":"?xt=urn:btih:54f7563ef5addd2a2e93b214d223c0eb53bb39bf&amp;dn=The+Wolverine+cam+rip+%282013%29&amp;tr=udp%3A%2F%2Ftracker.openbittorrent.com%3A80&amp;tr=udp%3A%2F%2Fopen.demonii.com%3A1337&amp;tr=udp%3A%2F%2Ftracker.coppersurfer.tk%3A6969&amp;tr=udp%3A%2F%2Fexodus.desync.com%3A6969","seeders":1,"leechers":0,"uploader":"mindcrasher","files":-1,"time":1375781177,"description":"The.Wolverine.2013.CAM.NEW.SOURCE.V2.XViD-VAiN\n\niMDB........: http://www.imdb.com/title/tt1430132/\n\nPLOT........: Summoned to Japan by an old acquaintance, Wolverine becomes embroiled in a conflict that forces him to confront his own demons.  \n\nT E C H N i C A L . i N F O . . .      \n\nFormat                                   : AVI\nFormat/Info                              : Audio Video Interleave\nFile size                                : 1.78 GiB\nDuration                                 : 1h 55mn\nOverall bit rate                         : 2 204 Kbps\nWriting application                      : VirtualDubMod 1.5.10.2 (build 2540/release)\nWriting library                          : VirtualDubMod build 2540/release\n\nVideo\nID                                       : 0\nFormat                                   : MPEG-4 Visual\nFormat profile                           : Advanced Simple@L5\nFormat settings, BVOP                    : 2\nFormat settings, QPel                    : No\nFormat settings, GMC                     : No warppoints\nFormat settings, Matrix                  : Default (MPEG)\nMuxing mode                              : Packed bitstream\nCodec ID                                 : XVID\nCodec ID/Hint                            : XviD\nDuration                                 : 1h 55mn\nBit rate                                 : 2 064 Kbps\nWidth                                    : 720 pixels\nHeight                                   : 384 pixels\nDisplay aspect ratio                     : 1.85:1\nFrame rate                               : 29.970 fps\nColor space                              : YUV\nChroma subsampling                       : 4:2:0\nBit depth                                : 8 bits\nScan type                                : Progressive\nCompression mode                         : Lossy\nBits/(Pixel*Frame)                       : 0.249\nStream size                              : 1.67 GiB (94%)\nWriting library                          : XviD 64\n\nAudio\nID                                       : 1\nFormat                                   : MPEG Audio\nFormat version                           : Version 1\nFormat profile                           : Layer 3\nMode                                     : Joint stereo\nMode extension                           : MS Stereo\nCodec ID                                 : 55\nCodec ID/Hint                            : MP3\nDuration                                 : 1h 55mn\nBit rate mode                            : Constant\nBit rate                                 : 128 Kbps\nChannel(s)                               : 2 channels\nSampling rate                            : 48.0 KHz\nCompression mode                         : Lossy\nStream size                              : 106 MiB (6%)\nAlignment                                : Aligned on interleaves\nInterleave, duration                     : 33 ms (1.00 video frame)\nInterleave, preload duration             : 504 ms\n\n\n\n\n\n\nE N C O D E R S . N O T E S . . .       \n\n\nSOURCE......:  from a &quot;Great&quot; Friend [thanx]\n\n\nSAMPLE......: Yes \nADDED NOTE..: well, well, well, look what we haz here; a very nice person has passed on some killer new vobs. i am sure there will be 100's before this or after as the sors is very nice. unlike the last this v2 didn't need as much work. was shot from the side so a little perspective to do the trix added some crop, little re-sizing. removed grain, added a light de-noiser and added a hint of sharpness. colors are as good as it's going to get until retail. also go HC Eng subs where needed :wink: \n\naudio was good as it was but, needing to add inches to my e-peen figured get rid of the hollowness cam audio can have, added some EQ's, limited the harshness and masterd it all together with much needed compression. \n\nagain, end of the day its a cam. as i said up ^^ there will be 100's to choose from but if you are reading this, you prolly made the right choice. cheers for looking and support the sites if you can where you are grabbing this. keep p2p alive and kickin' \n\nv/7 a/7 imho would rate higher but . . . \n\nscreens represent all that was done \n","torrent":{"xt":"urn:btih:54f7563ef5addd2a2e93b214d223c0eb53bb39bf","amp;dn":"The+Wolverine+cam+rip+%282013%29","amp;tr":["udp%3A%2F%2Ftracker.openbittorrent.com%3A80","udp%3A%2F%2Fopen.demonii.com%3A1337","udp%3A%2F%2Ftracker.coppersurfer.tk%3A6969","udp%3A%2F%2Fexodus.desync.com%3A6969"],"infoHash":"54f7563ef5addd2a2e93b214d223c0eb53bb39bf","infoHashBuffer":{"type":"Buffer","data":[84,247,86,62,245,173,221,42,46,147,178,20,210,35,192,235,83,187,57,191]},"announce":[],"urlList":[]}}